<svg width="48" height="56" viewBox="0 0 48 56" fill="none" xmlns="http://www.w3.org/2000/svg">
<g clip-path="url(#clip0_123_4140)">
<path d="M42.1177 17.545C42.2713 17.352 42.4249 17.1589 42.4249 16.9016C42.4249 16.3869 41.8873 15.9365 41.2729 15.9365C40.6585 15.9365 40.1209 16.3869 40.1209 16.9016V16.9659C39.3529 16.7729 38.5849 16.6442 37.6633 16.5155C37.8169 16.3869 37.8937 16.1938 37.8937 16.0008C37.8937 15.4861 37.3561 15.0357 36.7417 15.0357C36.1273 15.0357 35.5897 15.4861 35.5897 16.0008C35.5897 16.1295 35.5897 16.1938 35.6665 16.3225C34.8985 16.2582 34.0537 16.1938 33.2089 16.1295C30.1369 16.0008 27.2185 16.0008 25.5289 16.0652C25.5289 16.0008 25.5289 15.9365 25.5289 15.8721C25.5289 15.1644 24.8377 14.5853 23.9929 14.5853C23.1481 14.5853 22.4569 15.1644 22.4569 15.8721C22.4569 15.9365 22.4569 16.0008 22.4569 16.0652C20.7673 16.0008 17.8489 16.0008 14.7769 16.1295C13.9321 16.1938 13.0873 16.2582 12.3193 16.3225C12.3961 16.1938 12.3961 16.1295 12.3961 16.0008C12.3961 15.4861 11.8585 15.0357 11.2441 15.0357C10.6297 15.0357 10.0921 15.4861 10.0921 16.0008C10.0921 16.1938 10.1689 16.3869 10.3225 16.5155C9.40091 16.6442 8.55611 16.7729 7.86491 16.9659V16.9016C7.86491 16.3869 7.32731 15.9365 6.71291 15.9365C6.09851 15.9365 5.56091 16.3869 5.56091 16.9016C5.56091 17.1589 5.71451 17.4163 5.86811 17.545C4.56251 17.9954 3.64091 18.6388 3.10331 19.3465C2.94971 19.5395 2.94971 19.7326 2.94971 19.9256C3.56411 22.5635 4.56251 27.1317 4.48571 28.1612C4.40891 28.9976 5.33051 31.2495 7.25051 33.6945C7.25051 33.8875 7.25051 34.0805 7.32731 34.2092C7.32731 34.2735 7.32731 34.3379 7.32731 34.4022C7.09691 34.5952 6.94331 34.8526 6.94331 35.1099C6.94331 35.6247 7.48091 36.0751 8.09531 36.0751C8.47931 36.0751 8.86331 35.9464 9.01691 35.689C9.70811 36.3968 10.5529 37.1688 11.4745 37.8122C11.3977 37.9409 11.3977 38.0696 11.3977 38.1983C11.3977 38.713 11.9353 39.1634 12.5497 39.1634C12.7801 39.1634 13.0105 39.0991 13.2409 38.9704C15.8521 40.6432 19.0777 41.9944 22.9945 42.5091C22.9177 42.6378 22.9177 42.7665 22.9177 42.8951C22.9177 43.4099 23.4553 43.8603 24.0697 43.8603C24.6841 43.8603 25.2217 43.4099 25.2217 42.8951C25.2217 42.7665 25.2217 42.6378 25.1449 42.5091C29.0617 41.9944 32.2873 40.6432 34.8985 38.9704C35.0521 39.0991 35.3593 39.1634 35.5897 39.1634C36.2041 39.1634 36.7417 38.713 36.7417 38.1983C36.7417 38.0696 36.6649 37.8766 36.6649 37.8122C37.5865 37.1045 38.3545 36.3968 39.1225 35.689C39.3529 35.9464 39.6601 36.0751 40.0441 36.0751C40.6585 36.0751 41.1961 35.6247 41.1961 35.1099C41.1961 34.8526 41.0425 34.5952 40.8121 34.4022C40.8121 34.3379 40.8121 34.2735 40.8121 34.2092C40.8121 34.0805 40.8121 33.8875 40.8889 33.6945C42.8089 31.1852 43.7305 28.9976 43.6537 28.1612C43.5769 27.1317 44.4985 22.5635 45.1897 19.9256C45.2665 19.7326 45.1897 19.4752 45.0361 19.3465C44.3449 18.6388 43.5001 17.9954 42.1177 17.545ZM42.9625 19.9899C42.8857 20.5047 42.6553 21.3411 42.4249 22.3062C41.8873 23.207 40.9657 24.6224 39.7369 26.231C39.5833 25.8449 39.3529 25.5232 39.0457 25.2015C40.5049 23.1426 41.2729 20.8907 41.6569 19.2178C42.3481 19.5395 42.7321 19.7969 42.9625 19.9899ZM9.70811 26.3596C9.70811 26.424 9.70811 26.424 9.70811 26.3596C13.3177 30.2201 20.1529 32.3433 22.8409 32.4076C21.9961 32.4076 20.7673 32.472 19.3849 32.7937C18.3097 33.051 17.0809 33.4371 15.8521 34.0805C13.2409 32.279 10.9369 29.834 9.09371 27.5821C9.24731 27.1317 9.47771 26.7457 9.70811 26.3596ZM24.9145 23.0783C24.9145 23.0783 24.9913 23.0783 24.9145 23.0783C25.0681 23.0783 33.1321 21.7915 37.2025 25.2658C37.1257 25.3945 36.9721 25.5232 36.8953 25.6519C33.6697 29.1263 27.3721 31.1208 24.9913 31.1208V23.0783H24.9145ZM22.9177 31.1208C22.8409 31.1208 22.8409 31.1208 22.9177 31.1208C20.5369 31.0565 14.1625 29.1263 11.0137 25.6519C10.9369 25.5232 10.7833 25.3945 10.7065 25.2658C14.7769 21.7915 22.7641 23.0783 22.9177 23.0783H22.9945V31.1208H22.9177ZM22.9177 33.6945V37.0402C20.9209 36.7828 19.0009 36.0107 17.2345 34.9169C19.4617 33.8875 21.6889 33.6945 22.9177 33.6945ZM24.9145 33.6945C26.1433 33.6945 28.3705 33.8875 30.5977 34.9169C28.8313 36.0107 26.9113 36.7828 24.9145 37.0402V33.6945ZM28.3705 32.7937C26.9881 32.472 25.7593 32.4076 24.9145 32.4076C27.6025 32.3433 34.5145 30.2844 38.0473 26.424C38.0473 26.424 38.0473 26.424 38.1241 26.3596C38.3545 26.7457 38.5081 27.1317 38.6617 27.5821C36.8185 29.834 34.5145 32.279 31.9033 34.0805C30.6745 33.4371 29.3689 33.051 28.3705 32.7937ZM40.1977 18.7675C39.8905 20.2473 39.2761 22.3062 38.0473 24.1721C36.1273 22.6279 33.2857 21.7915 29.7529 21.5984C27.4489 21.4698 25.6057 21.7271 24.9145 21.7915V20.8264C24.9913 20.8264 24.9913 20.8264 25.0681 20.8264C25.1449 20.8264 29.4457 20.762 32.2873 20.6977C34.5913 20.6333 35.9737 19.4109 36.6649 18.1241C38.2009 18.3171 39.2761 18.5744 40.1977 18.7675ZM32.9785 17.8667C33.7465 17.931 34.4377 17.931 35.1289 17.9954C34.5913 18.7675 33.7465 19.4109 32.2873 19.4752C29.3689 19.5395 25.0681 19.6039 25.0681 19.6039H24.9913V17.8024C26.4505 17.738 29.5993 17.6737 32.9785 17.8667ZM14.8537 17.8667C18.1561 17.6737 21.3817 17.738 22.9177 17.8024V19.6039H22.8409C22.7641 19.6039 18.4633 19.5395 15.6217 19.4752C14.1625 19.4109 13.3177 18.7675 12.7801 17.9954C13.5481 17.931 14.2393 17.8667 14.8537 17.8667ZM11.0905 18.1884C11.7817 19.4752 13.1641 20.6977 15.4681 20.762C18.3865 20.8264 22.6873 20.8907 22.6873 20.8907C22.7641 20.8907 22.7641 20.8907 22.8409 20.8907V21.8558C22.2265 21.7915 20.3065 21.5341 18.0025 21.6628C14.4697 21.8558 11.6281 22.6922 9.70811 24.2364C8.47931 22.3705 7.86491 20.3116 7.55771 18.8318C8.70971 18.5101 9.93851 18.3171 11.0905 18.1884ZM6.17531 19.2178C6.55931 20.8907 7.32731 23.1426 8.78651 25.2015C8.55611 25.5232 8.32571 25.8449 8.09531 26.231C6.86651 24.6224 5.94491 23.207 5.40731 22.3062C5.17691 21.2767 5.02331 20.4403 4.86971 19.9256C5.17691 19.6682 5.63771 19.4752 6.17531 19.2178ZM6.09851 26.0379C6.48251 26.617 6.94331 27.1961 7.48091 27.8395C7.25051 28.6116 7.17371 29.3836 7.09691 30.1557C6.55931 29.1263 6.32891 28.4829 6.32891 28.2899C6.32891 27.8395 6.25211 27.003 6.09851 26.0379ZM10.3993 34.5952C9.70811 33.8231 9.09371 33.1154 8.55611 32.472C8.55611 31.5069 8.55611 30.4131 8.70971 29.3836C8.78651 29.5123 8.94011 29.5767 9.01691 29.7053C10.8601 31.8286 12.7033 33.5658 14.6233 34.9169C13.9321 35.3673 13.3177 35.9464 12.6265 36.5898C11.7817 35.882 11.0137 35.2386 10.3993 34.5952ZM13.7785 37.4262C14.3929 36.7185 15.0841 36.2037 15.7753 35.7534C18.1561 37.2332 20.4601 38.1339 22.8409 38.3913V40.9006C19.0777 40.3215 16.0825 38.9704 13.7785 37.4262ZM24.9145 40.9006V38.3913C27.2953 38.1339 29.5993 37.2332 31.9801 35.7534C32.6713 36.2037 33.3625 36.7828 33.9769 37.4262C31.6729 38.9704 28.6777 40.3215 24.9145 40.9006ZM35.2057 36.5898C34.5913 35.9464 33.9001 35.3673 33.2089 34.9169C35.0521 33.5658 36.9721 31.8286 38.8153 29.7053C38.8921 29.5767 39.0457 29.5123 39.1225 29.3836C39.2761 30.4774 39.2761 31.5712 39.2761 32.472C38.7385 33.1797 38.1241 33.8875 37.4329 34.5952C36.7417 35.2386 36.0505 35.882 35.2057 36.5898ZM41.5033 28.2255C41.5033 28.4185 41.2729 29.1263 40.7353 30.1557C40.6585 29.3836 40.5817 28.6116 40.3513 27.8395C40.8121 27.1961 41.2729 26.617 41.7337 26.0379C41.5033 27.003 41.4265 27.8395 41.5033 28.2255Z" fill="black"/>
<path d="M47.5705 18.7675C47.3401 17.6094 46.8793 17.0303 46.3417 16.773C46.2649 16.1296 46.1113 15.1645 45.7273 13.942C46.5721 13.2343 46.8025 12.1405 46.3417 11.304L44.3449 8.08703C43.8841 7.37928 42.9625 6.9289 41.8873 6.9289C41.8105 6.9289 41.6569 6.9289 41.5801 6.9289C39.1225 4.35528 35.1289 1.91034 28.9081 1.13826C28.4473 0.301833 27.4489 -0.212891 26.2969 -0.212891H21.5353C20.6137 -0.212891 19.6921 0.173152 19.2313 0.752216C19.1545 0.816557 19.0777 0.945237 19.0009 1.00958C19.0009 1.07392 18.9241 1.07392 18.9241 1.13826C12.7033 1.97468 8.78647 4.41962 6.25207 6.9289C6.17527 6.9289 6.02167 6.9289 5.94487 6.9289C4.86967 6.9289 3.94807 7.37928 3.48727 8.08703L1.49047 11.304C1.18327 11.8831 1.10647 12.5265 1.41367 13.1699C1.56727 13.4273 1.79767 13.749 2.02807 13.942C1.64407 15.1645 1.49047 16.1939 1.41367 16.773C0.876074 17.0303 0.415273 17.6094 0.184873 18.7675C-0.045527 19.9257 0.108073 22.1776 0.261673 23.6574C0.415273 24.4938 0.645673 25.1372 0.876073 25.7163C1.02967 26.231 1.26007 26.6814 1.33687 27.2605C1.49047 27.9039 1.49047 28.7403 1.56727 29.5124C1.64407 30.1558 1.64407 30.8635 1.72087 31.507C1.79767 31.8287 1.79767 32.1504 1.79767 32.4077C1.87447 33.1798 1.95127 33.9519 2.48887 35.1744C3.18007 36.6542 4.56247 38.7774 5.71448 40.5146L6.09847 41.0293C6.71288 41.9944 7.48087 42.8309 8.17207 43.603C8.86327 44.375 9.55448 45.0828 9.93848 45.7905C10.3993 46.4983 10.5529 47.2704 10.7833 48.0424C11.0137 48.8789 11.2441 49.7153 11.7817 50.4874C12.7033 51.8385 13.7017 53.061 14.7001 53.8974C15.6985 54.7339 16.6201 55.1842 18.0025 55.5059C18.9241 55.7633 19.9225 55.8276 20.9977 55.8276C21.3817 55.8276 21.7657 55.8276 22.1497 55.7633H23.6857H25.2217C25.6057 55.7633 25.9897 55.8276 26.3737 55.8276C27.4489 55.8276 28.4473 55.699 29.3689 55.5059C30.6745 55.1842 31.5961 54.7339 32.6713 53.8974C33.6697 53.061 34.7449 51.8385 35.5897 50.4874C36.1273 49.7153 36.3577 48.8789 36.5881 48.0424C36.8185 47.2704 37.0489 46.4983 37.4329 45.7905C37.8937 45.0828 38.5081 44.3107 39.1993 43.603C39.9673 42.7665 40.6585 41.9944 41.2729 41.0293L41.6569 40.5146C42.8089 38.7774 44.1913 36.5898 44.8825 35.1744C45.4969 33.9519 45.4969 33.1798 45.5737 32.4077C45.5737 32.1504 45.6505 31.8287 45.6505 31.507C45.7273 30.8635 45.8041 30.1558 45.8041 29.5124C45.8809 28.7403 45.8809 27.9682 46.0345 27.2605C46.1113 26.7458 46.3417 26.231 46.4953 25.7163C46.7257 25.0729 46.9561 24.4295 47.1097 23.6574C47.6473 22.1776 47.7241 19.8613 47.5705 18.7675ZM42.5785 8.79477L44.5753 12.0118C44.8057 12.3335 44.4217 12.7839 43.8841 13.0412C43.7305 13.1056 43.5001 13.1699 43.2697 13.1699H43.1929C42.8857 13.1699 42.5785 13.0412 42.5017 12.9126L40.5049 9.69554C40.4281 9.50252 40.5049 9.3095 40.5049 9.24516C40.5817 9.11648 40.6585 9.05213 40.7353 8.92345C40.8121 8.85911 40.9657 8.73043 41.1193 8.66609C41.3497 8.60175 41.5801 8.53741 41.8105 8.53741C42.1945 8.47307 42.5017 8.60175 42.5785 8.79477ZM20.5369 2.29639C20.5369 2.23205 20.5369 2.16771 20.5369 2.10337C20.5369 2.03903 20.5369 1.97468 20.5369 1.91034C20.6137 1.5243 20.9977 1.26694 21.4585 1.26694H22.9177H24.7609H26.2969C26.7577 1.26694 27.1417 1.5243 27.2185 1.91034V1.97468V2.03903V2.10337C27.2185 2.23205 27.1417 2.36073 27.0649 2.48941C26.9113 2.68243 26.6041 2.81111 26.2969 2.81111H21.5353C21.2281 2.81111 20.9209 2.68243 20.7673 2.48941C20.6137 2.55375 20.6137 2.42507 20.5369 2.29639ZM5.94487 8.47307C6.17527 8.47307 6.40567 8.53741 6.63607 8.60175C6.78967 8.66609 6.94327 8.73043 7.02007 8.85911C7.09687 8.92345 7.25047 9.05213 7.25047 9.18081C7.32728 9.3095 7.40408 9.50252 7.25047 9.6312L5.25367 12.8482C5.17687 13.0412 4.86967 13.1056 4.56247 13.1056H4.48567C4.25527 13.1056 4.10167 13.0412 3.87127 12.9769C3.56407 12.8482 3.33367 12.6552 3.18007 12.3978C3.10327 12.2692 3.02647 12.0761 3.18007 11.9475L5.17687 8.73043C5.33047 8.60175 5.56087 8.47307 5.94487 8.47307ZM45.4201 23.4001C45.3433 24.0435 45.1129 24.6225 44.8825 25.2016C44.6521 25.7163 44.4985 26.2954 44.3449 26.9388C44.1913 27.7109 44.1145 28.5473 44.1145 29.3837C44.0377 30.0915 44.0377 30.6705 43.9609 31.2496C43.8841 31.6356 43.8841 31.9573 43.8841 32.279C43.8073 32.9868 43.8073 33.5658 43.3465 34.531C42.7321 35.8821 41.3497 38.0053 40.2745 39.6782L39.8905 40.1929C39.3529 41.0293 38.6617 41.8014 37.9705 42.5735C37.2793 43.3456 36.5113 44.182 35.9737 45.0184C35.4361 45.9192 35.2057 46.82 34.9753 47.5921C34.7449 48.3642 34.5913 49.0076 34.2073 49.5866C33.4393 50.8091 32.5177 51.8385 31.5961 52.6106C30.8281 53.254 30.1369 53.5757 29.1385 53.8331C28.1401 54.0904 26.9881 54.1548 25.6825 54.0905H25.6057H24.0697H22.5337H22.4569C21.1513 54.1548 19.9993 54.0904 19.0009 53.8331C18.0025 53.5757 17.3113 53.254 16.5433 52.6106C15.6217 51.8385 14.7769 50.8091 13.9321 49.5866C13.5481 49.0076 13.3945 48.2998 13.1641 47.5921C12.9337 46.7556 12.7033 45.8549 12.1657 44.9541C11.6281 44.1177 10.8601 43.2813 10.1689 42.5092C9.47768 41.7371 8.78648 40.965 8.24887 40.1286L7.86487 39.6138C6.78967 37.941 5.40727 35.8178 4.79287 34.4666C4.33207 33.4372 4.25527 32.9224 4.25527 32.2147C4.25527 31.893 4.17847 31.5713 4.17847 31.1852C4.10167 30.6062 4.02487 29.9628 4.02487 29.3194C3.94807 28.483 3.94807 27.6465 3.79447 26.8744C3.64087 26.231 3.48727 25.652 3.25687 25.1372C3.02647 24.5582 2.87287 24.0435 2.71927 23.3357C2.48887 21.9202 2.48887 19.797 2.64247 18.8962C2.71927 18.5102 2.79607 18.3172 2.87287 18.1885C3.10327 18.1885 3.33367 18.1241 3.48727 17.9955C3.71767 17.8668 3.79447 17.6094 3.87127 17.3521C3.87127 17.3521 3.94807 16.2583 4.40887 14.6498C4.63927 14.7141 4.79287 14.7141 5.02327 14.7141C6.09847 14.7141 7.02007 14.2637 7.48087 13.556L9.47768 10.3389C9.78488 9.75988 9.86168 9.11647 9.55448 8.47307C9.40088 8.08703 9.09368 7.76533 8.70967 7.50796C11.3209 4.93435 14.8537 3.39017 19.2313 2.74677C19.3081 2.87545 19.3849 3.06847 19.4617 3.19715C19.5385 3.26149 19.6153 3.39017 19.6921 3.45451C20.2297 4.03358 21.0745 4.41962 21.9961 4.41962H26.2969C27.6025 4.41962 28.6777 3.71188 29.0617 2.68243C33.4393 3.32583 36.9721 4.93434 39.5833 7.44362C39.1993 7.70098 38.8921 8.02269 38.7385 8.40873C38.4313 9.05213 38.4313 9.69554 38.8153 10.2746L40.8121 13.4916C41.2729 14.1994 42.1945 14.6498 43.2697 14.6498C43.5001 14.6498 43.6537 14.6498 43.8841 14.5854C44.3449 16.1939 44.4217 17.2877 44.4217 17.2877C44.4217 17.5451 44.5753 17.7381 44.8057 17.9311C44.9593 18.0598 45.1897 18.1241 45.4201 18.1241C45.4969 18.1885 45.5737 18.4458 45.6505 18.8319C45.6505 19.8613 45.6505 21.9202 45.4201 23.4001Z" fill="black"/>
</g>
<defs>
<clipPath id="clip0_123_4140">
<rect width="48" height="56" fill="white"/>
</clipPath>
</defs>
</svg>
