<svg width="45" height="61" viewBox="0 0 45 61" fill="none" xmlns="http://www.w3.org/2000/svg">
<path d="M44.5965 24.2194C44.1623 23.8353 43.9832 23.6769 43.7767 23.5904C43.6967 23.5548 43.5298 23.481 43.3092 23.481C42.9875 23.481 42.6793 23.6317 42.3935 23.9294C41.8959 24.4459 37.6267 29.1302 37.4067 29.3891C37.259 29.5621 36.5645 30.0175 35.8739 30.0175H34.5777C34.2605 28.4935 33.3754 27.128 33.1465 26.7941L32.7161 24.5877C32.7129 24.5705 32.702 24.5565 32.6963 24.5406C32.5524 23.8671 30.6327 14.8711 30.3711 13.1392C30.0629 11.0969 28.1796 9.88778 26.5604 9.62827C25.9567 9.5316 24.0472 9.29627 24.0472 9.29627C23.9046 9.27782 23.7633 9.33825 23.6783 9.45273L23.4781 9.71923C23.3579 9.6887 23.2786 9.66835 23.2754 9.66707C23.2006 9.64736 23.1232 9.65562 23.0503 9.67916L22.8373 9.59584V8.48978C23.3412 7.97842 23.6546 7.28006 23.6546 6.50855V4.98208C23.693 4.99734 23.7256 4.99862 23.7518 4.99862C23.9436 4.99862 24.4878 5.01579 24.4878 5.01579C24.4898 5.01579 24.4923 5.01579 24.4942 5.01579C24.546 5.01579 24.5959 4.99544 24.633 4.95982C24.6682 4.92611 24.6893 4.88095 24.6931 4.83325C24.9611 4.43828 24.9048 3.56501 24.5275 2.23316L24.5166 2.2198C24.5166 2.13458 24.4623 2.05889 24.3811 2.03154C24.3356 2.01628 24.3184 2.00037 24.3197 1.96857C24.3273 1.93423 24.3261 1.89352 24.3152 1.85663H24.3158C23.8835 0.441466 22.2439 0.0229592 22.1742 0.00578637C22.1026 -0.0113864 22.0297 0.0102385 21.9804 0.063029C21.9158 0.13172 21.9062 0.13172 21.8787 0.13172C21.8289 0.13172 21.7649 0.120908 21.6747 0.107551L21.4714 0.0782938C21.277 0.0515805 21.1043 0.0388599 20.9585 0.0388599C20.8664 0.0388599 20.8089 0.0445842 20.83 0.0477643C20.7571 0.0394959 20.4565 0.0350438 20.14 0.0782938L19.9373 0.107551C19.8471 0.120908 19.7838 0.13172 19.7333 0.13172C19.7058 0.13172 19.6968 0.13172 19.6316 0.063029C19.5823 0.0108745 19.5088 -0.0113864 19.4378 0.00578637C19.3681 0.0229592 17.7285 0.441466 17.2962 1.85663L17.2994 1.8579C17.2879 1.90433 17.2872 1.95903 17.2955 1.99592C17.293 2.00037 17.2757 2.01628 17.2303 2.03154C17.1491 2.05889 17.0992 2.0926 17.0992 2.17783L17.0839 2.23316C16.7059 3.56501 16.6503 4.43828 16.9176 4.83325C16.9214 4.88095 16.9425 4.92611 16.9777 4.95982C17.0161 4.99735 17.073 5.01134 17.1229 5.01579C17.1235 5.01579 17.6671 4.99862 17.8589 4.99862C17.8845 4.99862 17.9171 4.99798 17.9568 4.98081V6.50855C17.9568 7.27942 18.2701 7.97778 18.774 8.48978V9.5952L18.5611 9.67852C18.4875 9.65499 18.4108 9.64608 18.3366 9.66644L18.3334 9.66707L18.1774 9.45528C18.0917 9.33888 17.9485 9.27592 17.8059 9.29563C17.8059 9.29563 15.8964 9.53096 15.2927 9.62764C13.6735 9.88714 11.7902 11.0962 11.482 13.1385C11.4813 13.1442 11.4794 13.1551 11.4788 13.1614C11.1968 15.0027 9.1696 24.4846 9.14849 24.5807C9.14594 24.5934 9.14977 24.6061 9.14849 24.6189L8.72452 26.7934C8.49622 27.1274 7.61053 28.4929 7.29335 30.0168H0.406721C0.186738 30.0168 0.00768201 30.1937 0.00704252 30.4131L7.16257e-06 32.0127C-0.000632323 32.1183 0.0415745 32.2194 0.116394 32.2945C0.191854 32.3695 0.293531 32.4115 0.399686 32.4115H7.44363C7.49031 32.5215 7.53699 32.6315 7.59774 32.7378C8.51093 34.3259 9.93762 35.4791 10.9909 35.4791C11.6284 35.4791 12.0857 35.0809 12.2462 34.3876C12.4425 33.5398 12.1637 32.898 11.7819 32.4121H14.4601C14.3028 33.3592 14.1601 34.4461 14.0713 35.6425C13.9689 37.0087 13.8494 38.2413 13.7419 39.355C13.4382 42.4894 13.2214 44.7645 13.7726 46.4124V52.0642C13.7726 52.089 13.7822 52.1106 13.7867 52.1348C13.6978 52.1335 13.6044 52.1303 13.536 52.1411C13.4848 52.1488 13.4113 52.1742 13.3525 52.255C13.2777 52.3574 13.1037 52.594 13.4484 54.7889C12.5084 55.3931 10.9391 55.9032 9.65369 56.0152C8.43291 56.1214 8.03387 56.746 7.90533 57.1085C7.68599 57.7248 7.91365 58.3761 8.2513 58.6999C8.28839 58.7355 8.33763 58.7552 8.39006 58.7552C8.3907 58.7552 8.39134 58.7552 8.39134 58.7552L8.97008 58.7507C8.75393 59.0249 8.33699 59.9299 8.33699 60.0177C8.5736 60.5717 9.16192 60.6932 9.33075 60.6932H17.3416C17.4266 60.6932 17.8461 60.1137 17.7982 59.9802C17.7649 59.8886 17.5079 59.1476 17.3493 58.6897L17.584 58.6878C17.6511 58.6871 17.7138 58.6534 17.7502 58.5975C18.366 57.6536 18.3629 53.2516 18.3603 52.753C18.3597 52.7072 18.3437 52.6627 18.3149 52.627C18.3098 52.6207 18.3008 52.615 18.2951 52.6086C18.2951 52.6067 18.2963 52.6048 18.297 52.6029L18.8962 46.5034C19.0477 46.2846 19.4142 45.7051 19.5485 45.0411C19.6712 44.4337 20.3395 41.6142 20.7782 39.7748C21.2169 41.6142 21.8851 44.4337 22.0079 45.0405C22.1096 45.5442 22.3462 46.0009 22.5214 46.2884C22.5144 46.3246 22.5054 46.3609 22.5093 46.3984L23.1187 52.6022C23.1187 52.6041 23.12 52.6061 23.1206 52.608C23.1149 52.6143 23.1059 52.62 23.1008 52.6264C23.0714 52.662 23.0554 52.7065 23.0554 52.7523C23.0528 53.251 23.0496 57.6523 23.6655 58.5968C23.7019 58.6528 23.7646 58.6871 23.8317 58.6871L24.0664 58.689C23.9078 59.147 23.6501 59.888 23.6175 59.9795C23.5695 60.1131 23.989 60.6925 24.0741 60.6925H32.0856C32.2544 60.6925 32.8427 60.5711 33.0793 60.0171C33.0793 59.9293 32.6618 59.0242 32.4463 58.7501L33.025 58.7546C33.0256 58.7546 33.0263 58.7546 33.0263 58.7546C33.0781 58.7546 33.1279 58.7348 33.165 58.6992C33.5033 58.3748 33.7303 57.7242 33.511 57.1079C33.3825 56.7453 32.9834 56.1208 31.7626 56.0145C30.4773 55.9026 28.908 55.3925 27.9679 54.7883C28.3133 52.594 28.1387 52.3567 28.0639 52.2543C28.0044 52.1736 27.9308 52.1475 27.8803 52.1405C27.8119 52.1297 27.7192 52.1335 27.6296 52.1348C27.6341 52.1112 27.6437 52.089 27.6437 52.0642V46.6484C27.6923 46.6045 27.739 46.5568 27.762 46.4919C28.3503 44.8255 28.1399 42.6179 27.8208 39.2761C27.716 38.1828 27.6009 36.9763 27.5011 35.6412C27.4116 34.4449 27.2683 33.3579 27.1091 32.4108H30.091C29.7093 32.8968 29.4304 33.5385 29.6268 34.3857C29.7873 35.0796 30.2445 35.4778 30.8821 35.4778C31.9353 35.4778 33.362 34.3247 34.2752 32.7365C34.3359 32.6303 34.3826 32.5202 34.4293 32.4102H38.2713C38.7177 32.4102 39.1922 32.3409 39.6405 31.8416C39.847 31.612 41.4329 29.7974 42.7771 28.2588C43.7466 27.149 44.5907 26.1835 44.6956 26.0658C44.8862 25.8528 45 25.5207 45 25.1779C44.9968 24.7887 44.8548 24.4471 44.5965 24.2194ZM38.2675 31.6164H34.6442C34.6832 31.3506 34.6947 31.0822 34.68 30.8119H35.8739C36.766 30.8119 37.6913 30.2846 38.0168 29.903C38.0808 29.8279 38.4932 29.3713 39.0509 28.7575L39.9302 30.3018C39.4716 30.8259 39.1289 31.2157 39.0413 31.3131C38.788 31.5948 38.561 31.6164 38.2675 31.6164ZM14.5713 51.8651V46.7584H18.0668L17.5309 52.2149C16.5096 51.9147 14.9326 51.8708 14.5713 51.8651ZM26.8412 46.7584V52.0642C26.8412 52.0826 26.8495 52.0985 26.852 52.1163L23.9117 52.5107L23.3464 46.7578H26.8412V46.7584ZM11.7199 31.6164C11.8292 31.3913 11.9264 31.1254 12.0038 30.8119H12.4035C12.4777 30.8195 12.5589 30.8348 12.6267 30.8348H12.6273C12.6753 30.8348 12.7092 30.8157 12.7539 30.8119H29.0231C29.1497 30.8303 29.2961 30.8278 29.4547 30.8119H29.6702C29.7476 31.1248 29.8448 31.3907 29.9542 31.6164H11.7199ZM0.805121 30.8125H7.18975C7.17504 31.0822 7.18655 31.3512 7.22556 31.6171H0.800644L0.805121 30.8125ZM19.5728 9.86679V9.05267C19.9475 9.2333 20.3619 9.34333 20.805 9.34333C21.2482 9.34333 21.6626 9.2333 22.0373 9.0533V9.86742C22.0373 9.96664 22.0827 10.0519 22.1467 10.1231L20.805 10.7992L19.4634 10.1231C19.5274 10.0506 19.5728 9.96601 19.5728 9.86679ZM9.97599 24.6958L12.8236 25.1429L12.4495 27.4988L9.60189 27.0517L9.97599 24.6958ZM26.4332 10.4131C27.8176 10.6351 29.3428 11.6827 29.5807 13.2568C29.6357 13.6219 29.731 14.3355 29.8474 15.24H12.0051C12.1215 14.3355 12.2161 13.6219 12.2711 13.2568C12.509 11.6827 14.0342 10.6345 15.4187 10.4131C15.8861 10.3381 17.1465 10.1797 17.6703 10.1142L20.5729 14.0557C20.6477 14.1574 20.7667 14.2179 20.8933 14.2185C21.0346 14.228 21.1395 14.16 21.2156 14.0589L24.1803 10.1142C24.7014 10.1784 25.9651 10.3381 26.4332 10.4131ZM10.8489 31.5268C10.7472 31.4466 10.6366 31.3582 10.6212 31.3449C10.5483 31.1642 10.5055 30.8125 10.6155 30.6503C10.6366 30.6192 10.7012 30.525 10.9761 30.525C11.0542 30.525 11.145 30.5371 11.239 30.5524C11.1507 30.9397 11.019 31.2679 10.8489 31.5268ZM15.5075 28.7174V26.7845H26.3443V28.7155L15.5075 28.7174ZM13.4733 28.8058L13.4203 28.5959C13.2495 27.8938 13.5175 26.0003 13.6351 25.3299C13.6364 25.3229 13.6338 25.3159 13.6345 25.3083L14.735 20.968L14.6781 30.0168H13.6338C13.6831 29.6416 13.5757 29.2065 13.4733 28.8058ZM27.1174 20.9693L28.2301 25.3592C28.2327 25.3694 28.2397 25.377 28.2435 25.3872C28.365 26.0963 28.6164 27.9097 28.4495 28.5959L28.3964 28.8058C28.2941 29.2059 28.1866 29.6409 28.2359 30.0168H27.1743L27.1174 20.9693ZM32.2499 27.0517L29.4023 27.4988L29.0282 25.1429L31.8758 24.6958L32.2499 27.0517ZM30.4415 30.5937C30.6103 30.5536 30.7657 30.5257 30.8923 30.5257C31.1673 30.5257 31.2319 30.6198 31.253 30.651C31.3636 30.8131 31.3201 31.1642 31.2632 31.315C31.2299 31.3614 31.0771 31.4822 30.9658 31.5707C30.9415 31.5897 30.9128 31.6139 30.8872 31.6343C30.6909 31.3697 30.5425 31.0129 30.4415 30.5937ZM43.4857 24.3314C43.5586 24.3651 43.7933 24.5731 44.0651 24.8141C44.1488 24.8885 44.1968 25.0215 44.1968 25.1798C44.1968 25.3407 44.145 25.4826 44.0945 25.5392C43.989 25.6575 43.1423 26.6255 42.1696 27.7392C41.9503 27.9904 41.7246 28.2487 41.4995 28.5069L40.6451 27.0078C41.7092 25.8426 42.7407 24.7181 42.9703 24.4802C43.166 24.276 43.2561 24.2302 43.4857 24.3314ZM40.2077 29.9844L39.3322 28.4478C39.4531 28.3148 39.5772 28.1781 39.7063 28.0369L40.576 29.5633C40.4494 29.7084 40.3254 29.8502 40.2077 29.9844ZM40.8542 29.2453L39.989 27.7271C40.1124 27.5917 40.2377 27.4543 40.3631 27.3169L41.2219 28.8243C41.0972 28.9674 40.9757 29.106 40.8542 29.2453ZM18.6359 3.78953C18.8431 3.74246 19.4404 3.64451 20.8044 3.64324C22.1729 3.64451 22.7695 3.74373 22.9742 3.79016C22.9006 3.86203 22.8546 3.96189 22.8546 4.07256V6.50919C22.8546 7.63369 21.935 8.5483 20.805 8.5483C19.6744 8.5483 18.7549 7.63369 18.7549 6.50919V4.07256C18.7555 3.96189 18.7095 3.86203 18.6359 3.78953ZM15.4206 59.1699C15.5561 59.3461 15.386 59.5521 15.0458 59.5521C14.7043 59.5521 11.8516 59.6126 11.5792 59.6126C11.3413 59.6126 11.4449 59.0974 11.5888 58.7323L15.145 58.7062C15.239 58.8818 15.3515 59.0808 15.4206 59.1699ZM29.8339 59.6126C29.5615 59.6126 26.7081 59.5521 26.3673 59.5521C26.0271 59.5521 25.8563 59.3461 25.9926 59.1699C26.0616 59.0808 26.1742 58.8818 26.2688 58.7062L29.825 58.7323C29.9676 59.098 30.0718 59.6126 29.8339 59.6126Z" fill="black"/>
</svg>
