<svg width="30" height="25" viewBox="0 0 30 25" fill="none" xmlns="http://www.w3.org/2000/svg">
<path d="M21.9196 8.84527C21.9792 8.77517 22.0387 8.70507 22.0387 8.61159C22.0387 8.42465 21.8302 8.26108 21.592 8.26108C21.3537 8.26108 21.1453 8.42465 21.1453 8.61159V8.63496C20.8474 8.56486 20.5496 8.51812 20.1922 8.47139C20.2518 8.42465 20.2816 8.35455 20.2816 8.28445C20.2816 8.09751 20.0731 7.93393 19.8348 7.93393C19.5966 7.93393 19.3881 8.09751 19.3881 8.28445C19.3881 8.33118 19.3881 8.35455 19.4179 8.40129C19.1201 8.37792 18.7925 8.35455 18.4649 8.33118C17.2736 8.28445 16.1419 8.28445 15.4867 8.30782C15.4867 8.28445 15.4867 8.26108 15.4867 8.23771C15.4867 7.98067 15.2186 7.77036 14.891 7.77036C14.5634 7.77036 14.2954 7.98067 14.2954 8.23771C14.2954 8.26108 14.2954 8.28445 14.2954 8.30782C13.6402 8.28445 12.5084 8.28445 11.3172 8.33118C10.9896 8.35455 10.662 8.37792 10.3641 8.40129C10.3939 8.35455 10.3939 8.33118 10.3939 8.28445C10.3939 8.09751 10.1854 7.93393 9.94718 7.93393C9.70892 7.93393 9.50045 8.09751 9.50045 8.28445C9.50045 8.35455 9.53023 8.42465 9.5898 8.47139C9.23241 8.51812 8.90481 8.56486 8.63677 8.63496V8.61159C8.63677 8.42465 8.42829 8.26108 8.19004 8.26108C7.95178 8.26108 7.7433 8.42465 7.7433 8.61159C7.7433 8.70507 7.80287 8.79854 7.86243 8.84527C7.35614 9.00884 6.99875 9.24252 6.79028 9.49956C6.73071 9.56967 6.73071 9.63977 6.73071 9.70987C6.96897 10.6679 7.35614 12.327 7.32636 12.7009C7.29657 13.0047 7.65396 13.8226 8.39851 14.7105C8.39851 14.7806 8.39851 14.8507 8.42829 14.8975C8.42829 14.9209 8.42829 14.9442 8.42829 14.9676C8.33895 15.0377 8.27938 15.1312 8.27938 15.2246C8.27938 15.4116 8.48786 15.5751 8.72611 15.5751C8.87502 15.5751 9.02394 15.5284 9.0835 15.4349C9.35154 15.692 9.67914 15.9724 10.0365 16.2061C10.0067 16.2528 10.0067 16.2995 10.0067 16.3463C10.0067 16.5332 10.2152 16.6968 10.4535 16.6968C10.5428 16.6968 10.6322 16.6734 10.7215 16.6267C11.7341 17.2342 12.985 17.725 14.5038 17.9119C14.4741 17.9586 14.4741 18.0054 14.4741 18.0521C14.4741 18.2391 14.6825 18.4026 14.9208 18.4026C15.159 18.4026 15.3675 18.2391 15.3675 18.0521C15.3675 18.0054 15.3675 17.9586 15.3377 17.9119C16.8566 17.725 18.1075 17.2342 19.1201 16.6267C19.1796 16.6734 19.2988 16.6968 19.3881 16.6968C19.6264 16.6968 19.8348 16.5332 19.8348 16.3463C19.8348 16.2995 19.8051 16.2294 19.8051 16.2061C20.1624 15.949 20.4603 15.692 20.7581 15.4349C20.8474 15.5284 20.9666 15.5751 21.1155 15.5751C21.3537 15.5751 21.5622 15.4116 21.5622 15.2246C21.5622 15.1312 21.5026 15.0377 21.4133 14.9676C21.4133 14.9442 21.4133 14.9209 21.4133 14.8975C21.4133 14.8507 21.4133 14.7806 21.4431 14.7105C22.1876 13.7992 22.545 13.0047 22.5152 12.7009C22.4854 12.327 22.8428 10.6679 23.1109 9.70987C23.1407 9.63977 23.1109 9.5463 23.0513 9.49956C22.7833 9.24252 22.4557 9.00884 21.9196 8.84527ZM22.2472 9.73324C22.2174 9.92018 22.1281 10.224 22.0387 10.5745C21.8302 10.9016 21.4729 11.4157 20.9963 11.9999C20.9368 11.8597 20.8474 11.7429 20.7283 11.626C21.2942 10.8783 21.592 10.0604 21.7409 9.45283C22.0089 9.56967 22.1578 9.66314 22.2472 9.73324ZM9.35154 12.0466C9.35154 12.07 9.35154 12.07 9.35154 12.0466C10.7513 13.4487 13.4019 14.2198 14.4443 14.2432C14.1167 14.2432 13.6402 14.2666 13.1041 14.3834C12.6871 14.4769 12.2106 14.6171 11.7341 14.8507C10.7215 14.1965 9.82805 13.3085 9.11328 12.4906C9.17285 12.327 9.26219 12.1868 9.35154 12.0466ZM15.2484 10.8549C15.2484 10.8549 15.2782 10.8549 15.2484 10.8549C15.308 10.8549 18.4351 10.3875 20.0135 11.6494C19.9838 11.6961 19.9242 11.7429 19.8944 11.7896C18.6436 13.0514 16.2014 13.7758 15.2782 13.7758V10.8549H15.2484ZM14.4741 13.7758C14.4443 13.7758 14.4443 13.7758 14.4741 13.7758C13.5508 13.7525 11.0789 13.0514 9.85783 11.7896C9.82805 11.7429 9.76849 11.6961 9.73871 11.6494C11.3172 10.3875 14.4145 10.8549 14.4741 10.8549H14.5038V13.7758H14.4741ZM14.4741 14.7105V15.9257C13.6997 15.8322 12.9552 15.5518 12.2702 15.1545C13.1339 14.7806 13.9975 14.7105 14.4741 14.7105ZM15.2484 14.7105C15.7249 14.7105 16.5886 14.7806 17.4523 15.1545C16.7673 15.5518 16.0227 15.8322 15.2484 15.9257V14.7105ZM16.5886 14.3834C16.0525 14.2666 15.576 14.2432 15.2484 14.2432C16.2908 14.2198 18.9712 13.4721 20.3411 12.07C20.3411 12.07 20.3411 12.07 20.3709 12.0466C20.4603 12.1868 20.5198 12.327 20.5794 12.4906C19.8646 13.3085 18.9712 14.1965 17.9586 14.8507C17.4821 14.6171 16.9758 14.4769 16.5886 14.3834ZM21.175 9.28926C21.0559 9.82671 20.8177 10.5745 20.3411 11.2521C19.5966 10.6913 18.4946 10.3875 17.1247 10.3174C16.2312 10.2707 15.5164 10.3642 15.2484 10.3875V10.037C15.2782 10.037 15.2782 10.037 15.308 10.037C15.3377 10.037 17.0055 10.0137 18.1075 9.99028C19.0009 9.96692 19.537 9.52293 19.8051 9.05558C20.4007 9.12568 20.8177 9.21915 21.175 9.28926ZM18.3755 8.96211C18.6733 8.98548 18.9414 8.98548 19.2094 9.00884C19.0009 9.28926 18.6733 9.52293 18.1075 9.5463C16.9758 9.56967 15.308 9.59303 15.308 9.59303H15.2782V8.93874C15.844 8.91537 17.0651 8.89201 18.3755 8.96211ZM11.3469 8.96211C12.6276 8.89201 13.8784 8.91537 14.4741 8.93874V9.59303H14.4443C14.4145 9.59303 12.7467 9.56967 11.6448 9.5463C11.0789 9.52293 10.7513 9.28926 10.5428 9.00884C10.8406 8.98548 11.1087 8.96211 11.3469 8.96211ZM9.88762 9.07895C10.1557 9.5463 10.6917 9.99028 11.5852 10.0137C12.7169 10.037 14.3847 10.0604 14.3847 10.0604C14.4145 10.0604 14.4145 10.0604 14.4443 10.0604V10.4109C14.206 10.3875 13.4615 10.2941 12.568 10.3408C11.198 10.4109 10.0961 10.7147 9.35154 11.2755C8.87502 10.5978 8.63677 9.85008 8.51764 9.31262C8.96437 9.19579 9.44089 9.12568 9.88762 9.07895ZM7.98156 9.45283C8.13047 10.0604 8.42829 10.8783 8.99415 11.626C8.90481 11.7429 8.81546 11.8597 8.72611 11.9999C8.2496 11.4157 7.89221 10.9016 7.68374 10.5745C7.59439 10.2006 7.53483 9.89681 7.47527 9.70987C7.59439 9.6164 7.77309 9.5463 7.98156 9.45283ZM7.95178 11.9298C8.10069 12.1401 8.27938 12.3504 8.48786 12.5841C8.39851 12.8645 8.36873 13.1449 8.33895 13.4253C8.13047 13.0514 8.04113 12.8178 8.04113 12.7477C8.04113 12.5841 8.01134 12.2803 7.95178 11.9298ZM9.61958 15.0377C9.35154 14.7573 9.11328 14.5002 8.90481 14.2666C8.90481 13.916 8.90481 13.5188 8.96437 13.1449C8.99415 13.1916 9.05372 13.215 9.0835 13.2618C9.79827 14.0329 10.513 14.6638 11.2576 15.1545C10.9896 15.3181 10.7513 15.5284 10.4833 15.7621C10.1557 15.505 9.85783 15.2714 9.61958 15.0377ZM10.93 16.0659C11.1682 15.8088 11.4363 15.6219 11.7043 15.4583C12.6276 15.9958 13.521 16.3229 14.4443 16.4164V17.3277C12.985 17.1174 11.8235 16.6267 10.93 16.0659ZM15.2484 17.3277V16.4164C16.1716 16.3229 17.0651 15.9958 17.9884 15.4583C18.2564 15.6219 18.5244 15.8322 18.7627 16.0659C17.8692 16.6267 16.7077 17.1174 15.2484 17.3277ZM19.2392 15.7621C19.0009 15.5284 18.7329 15.3181 18.4649 15.1545C19.1796 14.6638 19.9242 14.0329 20.639 13.2618C20.6687 13.215 20.7283 13.1916 20.7581 13.1449C20.8177 13.5422 20.8177 13.9394 20.8177 14.2666C20.6092 14.5236 20.3709 14.7806 20.1029 15.0377C19.8348 15.2714 19.5668 15.505 19.2392 15.7621ZM21.6813 12.7243C21.6813 12.7944 21.592 13.0514 21.3835 13.4253C21.3537 13.1449 21.3239 12.8645 21.2346 12.5841C21.4133 12.3504 21.592 12.1401 21.7707 11.9298C21.6813 12.2803 21.6516 12.5841 21.6813 12.7243Z" fill="black"/>
<path d="M24.0342 9.28926C23.9448 8.86865 23.7661 8.65834 23.5576 8.56487C23.5279 8.33119 23.4683 7.98068 23.3194 7.53669C23.647 7.27965 23.7363 6.8824 23.5576 6.57862L22.7833 5.41024C22.6046 5.1532 22.2472 4.98963 21.8303 4.98963C21.8005 4.98963 21.7409 4.98963 21.7112 4.98963C20.7581 4.05492 19.2095 3.16695 16.7971 2.88654C16.6184 2.58276 16.2312 2.39582 15.7845 2.39582H13.938C13.5806 2.39582 13.2233 2.53603 13.0446 2.74634C13.0148 2.7697 12.985 2.81644 12.9552 2.83981C12.9552 2.86317 12.9254 2.86317 12.9254 2.88654C10.5131 3.19032 8.99419 4.07829 8.01138 4.98963C7.9816 4.98963 7.92204 4.98963 7.89226 4.98963C7.47531 4.98963 7.11792 5.1532 6.93923 5.41024L6.16489 6.57862C6.04577 6.78893 6.01598 7.02261 6.13511 7.25628C6.19468 7.34975 6.28402 7.46659 6.37337 7.53669C6.22446 7.98068 6.16489 8.35456 6.13511 8.56487C5.92664 8.65834 5.74794 8.86865 5.6586 9.28926C5.56925 9.70988 5.62882 10.5277 5.68838 11.0652C5.74794 11.369 5.83729 11.6027 5.92664 11.813C5.9862 11.9999 6.07555 12.1635 6.10533 12.3738C6.16489 12.6075 6.16489 12.9112 6.19468 13.1917C6.22446 13.4253 6.22446 13.6824 6.25424 13.9161C6.28402 14.0329 6.28402 14.1497 6.28402 14.2432C6.3138 14.5236 6.34359 14.804 6.55206 15.248C6.8201 15.7855 7.35618 16.5566 7.80291 17.1875L7.95182 17.3745C8.19008 17.725 8.4879 18.0287 8.75594 18.3092C9.02398 18.5896 9.29201 18.8466 9.44093 19.1037C9.61962 19.3607 9.67918 19.6411 9.76853 19.9215C9.85787 20.2253 9.94722 20.5291 10.1557 20.8095C10.5131 21.3002 10.9002 21.7442 11.2874 22.048C11.6746 22.3518 12.032 22.5153 12.568 22.6322C12.9254 22.7256 13.3126 22.749 13.7295 22.749C13.8785 22.749 14.0274 22.749 14.1763 22.7256H14.7719H15.3676C15.5165 22.7256 15.6654 22.749 15.8143 22.749C16.2312 22.749 16.6184 22.7023 16.9758 22.6322C17.4821 22.5153 17.8395 22.3518 18.2564 22.048C18.6436 21.7442 19.0605 21.3002 19.3881 20.8095C19.5966 20.5291 19.686 20.2253 19.7753 19.9215C19.8647 19.6411 19.954 19.3607 20.1029 19.1037C20.2816 18.8466 20.5199 18.5662 20.7879 18.3092C21.0857 18.0054 21.3538 17.725 21.592 17.3745L21.7409 17.1875C22.1877 16.5566 22.7237 15.7621 22.9918 15.248C23.23 14.804 23.23 14.5236 23.2598 14.2432C23.2598 14.1497 23.2896 14.0329 23.2896 13.9161C23.3194 13.6824 23.3492 13.4253 23.3492 13.1917C23.3789 12.9112 23.3789 12.6308 23.4385 12.3738C23.4683 12.1868 23.5576 11.9999 23.6172 11.813C23.7066 11.5793 23.7959 11.3456 23.8555 11.0652C24.0639 10.5277 24.0937 9.68651 24.0342 9.28926ZM22.0983 5.66729L22.8727 6.83567C22.962 6.9525 22.8131 7.11608 22.6046 7.20955C22.5451 7.23292 22.4557 7.25628 22.3664 7.25628H22.3366C22.2174 7.25628 22.0983 7.20955 22.0685 7.16281L21.2942 5.99443C21.2644 5.92433 21.2942 5.85423 21.2942 5.83086C21.324 5.78412 21.3538 5.76076 21.3835 5.71402C21.4133 5.69065 21.4729 5.64392 21.5325 5.62055C21.6218 5.59718 21.7111 5.57382 21.8005 5.57382C21.9494 5.55045 22.0685 5.59718 22.0983 5.66729ZM13.5509 3.30716C13.5509 3.28379 13.5509 3.26042 13.5509 3.23706C13.5509 3.21369 13.5509 3.19032 13.5509 3.16695C13.5806 3.02675 13.7295 2.93328 13.9082 2.93328H14.4741H15.1889H15.7845C15.9632 2.93328 16.1121 3.02675 16.1419 3.16695V3.19032V3.21369V3.23706C16.1419 3.28379 16.1121 3.33053 16.0823 3.37726C16.0228 3.44736 15.9036 3.4941 15.7845 3.4941H13.938C13.8189 3.4941 13.6998 3.44736 13.6402 3.37726C13.5806 3.40063 13.5806 3.35389 13.5509 3.30716ZM7.89226 5.55045C7.9816 5.55045 8.07095 5.57382 8.16029 5.59718C8.21986 5.62055 8.27942 5.64392 8.30921 5.69065C8.33899 5.71402 8.39855 5.76076 8.39855 5.80749C8.42833 5.85423 8.45812 5.92433 8.39855 5.97106L7.62422 7.13945C7.59444 7.20955 7.47531 7.23292 7.35618 7.23292H7.3264C7.23705 7.23292 7.17749 7.20955 7.08814 7.18618C6.96901 7.13945 6.87966 7.06934 6.8201 6.97587C6.79032 6.92914 6.76054 6.85903 6.8201 6.8123L7.59444 5.64392C7.654 5.59718 7.74335 5.55045 7.89226 5.55045ZM23.2003 10.9717C23.1705 11.2054 23.0811 11.4157 22.9918 11.626C22.9024 11.813 22.8429 12.0233 22.7833 12.257C22.7237 12.5374 22.694 12.8411 22.694 13.1449C22.6642 13.402 22.6642 13.6123 22.6344 13.8226C22.6046 13.9628 22.6046 14.0796 22.6046 14.1965C22.5748 14.4535 22.5748 14.6638 22.3961 15.0143C22.1579 15.505 21.6218 16.2762 21.2049 16.8837L21.0559 17.0707C20.8475 17.3745 20.5794 17.6549 20.3114 17.9353C20.0434 18.2157 19.7455 18.5195 19.5371 18.8232C19.3286 19.1504 19.2392 19.4775 19.1499 19.758C19.0605 20.0384 19.001 20.272 18.8521 20.4823C18.5542 20.9263 18.1969 21.3002 17.8395 21.5806C17.5417 21.8143 17.2736 21.9311 16.8865 22.0246C16.4993 22.1181 16.0526 22.1414 15.5463 22.1181H15.5165H14.9208H14.3252H14.2954C13.7891 22.1414 13.3424 22.1181 12.9552 22.0246C12.568 21.9311 12.3 21.8143 12.0022 21.5806C11.6448 21.3002 11.3172 20.9263 10.9896 20.4823C10.8407 20.272 10.7811 20.015 10.6918 19.758C10.6024 19.4542 10.5131 19.127 10.3046 18.7999C10.0961 18.4961 9.79831 18.1923 9.53027 17.9119C9.26223 17.6315 8.99419 17.3511 8.78572 17.0473L8.63681 16.8604C8.21986 16.2528 7.68378 15.4817 7.44552 14.991C7.26683 14.6171 7.23705 14.4301 7.23705 14.1731C7.23705 14.0563 7.20727 13.9394 7.20727 13.7992C7.17749 13.5889 7.1477 13.3552 7.1477 13.1216C7.11792 12.8178 7.11792 12.514 7.05836 12.2336C6.99879 11.9999 6.93923 11.7896 6.84988 11.6027C6.76054 11.3923 6.70097 11.2054 6.64141 10.9484C6.55206 10.4343 6.55206 9.66315 6.61163 9.336C6.64141 9.19579 6.67119 9.12569 6.70097 9.07896C6.79032 9.07896 6.87966 9.05559 6.93923 9.00885C7.02857 8.96212 7.05836 8.86865 7.08814 8.77518C7.08814 8.77518 7.11792 8.37793 7.29661 7.79374C7.38596 7.81711 7.44552 7.81711 7.53487 7.81711C7.95182 7.81711 8.30921 7.65353 8.4879 7.39649L9.26223 6.22811C9.38136 6.0178 9.41114 5.78412 9.29201 5.55045C9.23245 5.41024 9.11332 5.2934 8.96441 5.19993C9.977 4.26523 11.347 3.70441 13.0446 3.47073C13.0743 3.51747 13.1041 3.58757 13.1339 3.6343C13.1637 3.65767 13.1935 3.70441 13.2233 3.72777C13.4317 3.93808 13.7593 4.07829 14.1167 4.07829H15.7845C16.2908 4.07829 16.7078 3.82125 16.8567 3.44736C18.5542 3.68104 19.9242 4.26523 20.9368 5.17657C20.7879 5.27004 20.6688 5.38687 20.6092 5.52708C20.4901 5.76076 20.4901 5.99443 20.639 6.20474L21.4133 7.37312C21.592 7.63016 21.9494 7.79374 22.3664 7.79374C22.4557 7.79374 22.5153 7.79374 22.6046 7.77037C22.7833 8.35456 22.8131 8.75181 22.8131 8.75181C22.8131 8.84528 22.8727 8.91538 22.962 8.98549C23.0216 9.03222 23.1109 9.05559 23.2003 9.05559C23.23 9.07896 23.2598 9.17243 23.2896 9.31263C23.2896 9.68651 23.2896 10.4343 23.2003 10.9717Z" fill="black"/>
</svg>
